# xmcd CD database file
#
# Track frame offsets:
#	150
#	2455
#	89977
#	176535
#	262092
#	266980
#	269613
#	272252
#	274874
#	277500
#	282372
#	287247
#	292129
#	297009
#	301876
#	306751
#
# Disc length: 4150 seconds
#
# Revision: 0
# Processed by: cddbd v1.5.2PL0 Copyright (c) Steve Scherf et al.
# Submitted via: CDex 1.51
#
DISCID=fd103410
DTITLE=Southern Arts Federation - JazzSouth Sampler Number 34
DYEAR=2000
DGENRE=Jazz
TTITLE0=Intro
TTITLE1=Nicole Yarling'
TTITLE2=Life Force
TTITLE3=Sam Kennedy
TTITLE4=Outro
TTITLE5=30-Second Promos
TTITLE6=30-Second Promos
TTITLE7=30-Second Promos
TTITLE8=30-Second Promos
TTITLE9=Full Program Promo
TTITLE10=Yarling Promo
TTITLE11=Life Force Promo
TTITLE12=Kennedy Promo
TTITLE13=60-Second PSA - Attention Artists
TTITLE14=60-Second PSAs - JazzSouth Samplers
TTITLE15=60-Second PSAs - JazzSouth Mission
EXTD=YEAR: 2000
EXTT0=
EXTT1=
EXTT2=
EXTT3=
EXTT4=
EXTT5=
EXTT6=
EXTT7=
EXTT8=
EXTT9=
EXTT10=
EXTT11=
EXTT12=
EXTT13=
EXTT14=
EXTT15=
PLAYORDER=
